<?xml version="1.0" encoding="utf-8"?>
<!-- Generator: Adobe Illustrator 21.0.0, SVG Export Plug-In . SVG Version: 6.00 Build 0)  -->
<svg version="1.1" id="Layer_1" xmlns="http://www.w3.org/2000/svg" xmlns:xlink="http://www.w3.org/1999/xlink" x="0px" y="0px"
	 viewBox="0 0 330 330" style="enable-background:new 0 0 330 330;" xml:space="preserve">
<style type="text/css">
	.st0{fill:#FFFFFF;}
</style>
<g id="XMLID_486_">
	<path id="XMLID_487_" class="st0" d="M165,330c63.4,0,115-51.6,115-115c0-29.8-11.4-56.9-30-77.4V85c0-46.9-38.1-85-85-85
		S80,38.1,80,85v52.6c-18.6,20.4-30,47.6-30,77.4C50,278.4,101.6,330,165,330z M180,220v20c0,8.3-6.7,15-15,15s-15-6.7-15-15v-20
		c-6.1-4.6-10-11.8-10-20c0-13.8,11.2-25,25-25s25,11.2,25,25C190,208.2,186.1,215.4,180,220z M110,85c0-30.3,24.7-55,55-55
		c30.3,0,55,24.7,55,55v29c-16.3-8.9-35.1-14-55-14c-19.9,0-38.7,5.1-55,14V85z"/>
</g>
</svg>
